<svg xmlns="http://www.w3.org/2000/svg"><symbol style="enable-background:new 0 0 512.001 512.001" id="sprite-cancel" viewBox="0 0 512.001 512.001"><path d="M284.286 256.002 506.143 34.144c7.811-7.811 7.811-20.475 0-28.285-7.811-7.81-20.475-7.811-28.285 0L256 227.717 34.143 5.859c-7.811-7.811-20.475-7.811-28.285 0-7.81 7.811-7.811 20.475 0 28.285l221.857 221.857L5.858 477.859c-7.811 7.811-7.811 20.475 0 28.285a19.938 19.938 0 0 0 14.143 5.857 19.94 19.94 0 0 0 14.143-5.857L256 284.287l221.857 221.857c3.905 3.905 9.024 5.857 14.143 5.857s10.237-1.952 14.143-5.857c7.811-7.811 7.811-20.475 0-28.285L284.286 256.002z"/></symbol><symbol id="sprite-filter" viewBox="0 0 511 512"><path d="M492.477 0H20.5C9.453 0 .5 8.953.5 20c0 55.695 23.875 108.867 65.504 145.871l87.59 77.852a71.265 71.265 0 0 1 23.898 53.222v195.032c0 15.937 17.813 25.492 31.09 16.636l117.996-78.66a20.005 20.005 0 0 0 8.906-16.64V296.945a71.265 71.265 0 0 1 23.899-53.222l87.586-77.852C488.598 128.867 512.473 75.695 512.473 20c0-11.047-8.953-20-19.996-20zm-72.082 135.973-87.586 77.855c-23.72 21.086-37.325 51.379-37.325 83.113V402.61l-77.996 51.996v-157.66a111.301 111.301 0 0 0-37.324-83.117l-87.586-77.851c-28.07-24.957-45.988-59.153-50.785-95.98H471.18c-4.797 36.827-22.711 71.023-50.785 95.976zm0 0"/></symbol><symbol style="enable-background:new 0 0 492 492" id="sprite-left-arrow" viewBox="0 0 492 492"><path d="M198.608 246.104 382.664 62.04c5.068-5.056 7.856-11.816 7.856-19.024 0-7.212-2.788-13.968-7.856-19.032l-16.128-16.12C361.476 2.792 354.712 0 347.504 0s-13.964 2.792-19.028 7.864L109.328 227.008c-5.084 5.08-7.868 11.868-7.848 19.084-.02 7.248 2.76 14.028 7.848 19.112l218.944 218.932c5.064 5.072 11.82 7.864 19.032 7.864 7.208 0 13.964-2.792 19.032-7.864l16.124-16.12c10.492-10.492 10.492-27.572 0-38.06L198.608 246.104z"/></symbol><symbol style="enable-background:new 0 0 457.896 457.896" id="sprite-navigate-to-beginning" viewBox="0 0 457.896 457.896"><path d="M403.107 403.883c12.354 12.354 12.354 32.391 0 44.744-12.354 12.359-32.386 12.359-44.751 0L164.073 254.34c-6.174-6.177-9.262-14.269-9.262-22.366s3.094-16.195 9.262-22.369L358.356 15.32c12.365-12.359 32.397-12.359 44.751 0 12.354 12.354 12.354 32.394 0 44.748L231.201 231.974l171.906 171.909zM108.065 0H51.576a6.05 6.05 0 0 0-6.053 6.053v436.291a6.045 6.045 0 0 0 6.053 6.053h56.489a6.043 6.043 0 0 0 6.052-6.053V6.053A6.046 6.046 0 0 0 108.065 0z"/></symbol><symbol style="enable-background:new 0 0 457.896 457.896" id="sprite-navigate-to-end" viewBox="0 0 457.896 457.896"><path d="M226.693 231.974 54.788 60.068c-12.354-12.354-12.354-32.394 0-44.748 12.354-12.359 32.388-12.359 44.748 0l194.293 194.284c6.171 6.18 9.256 14.271 9.256 22.369s-3.091 16.195-9.256 22.366L99.535 448.627c-12.359 12.359-32.394 12.359-44.748 0-12.354-12.354-12.354-32.391 0-44.744l171.906-171.909zM343.78 6.053v436.291a6.041 6.041 0 0 0 6.052 6.053h56.489a6.045 6.045 0 0 0 6.053-6.053V6.053A6.05 6.05 0 0 0 406.321 0h-56.489a6.045 6.045 0 0 0-6.052 6.053z"/></symbol><symbol style="enable-background:new 0 0 492.004 492.004" id="sprite-right-arrow" viewBox="0 0 492.004 492.004"><path d="M382.678 226.804 163.73 7.86C158.666 2.792 151.906 0 144.698 0s-13.968 2.792-19.032 7.86l-16.124 16.12c-10.492 10.504-10.492 27.576 0 38.064L293.398 245.9l-184.06 184.06c-5.064 5.068-7.86 11.824-7.86 19.028 0 7.212 2.796 13.968 7.86 19.04l16.124 16.116c5.068 5.068 11.824 7.86 19.032 7.86s13.968-2.792 19.032-7.86L382.678 265c5.076-5.084 7.864-11.872 7.848-19.088.016-7.244-2.772-14.028-7.848-19.108z"/></symbol></svg>